<?xml version="1.0" encoding="UTF-8" standalone="no"?><!-- Generator: Gravit.io --><svg xmlns="http://www.w3.org/2000/svg" xmlns:xlink="http://www.w3.org/1999/xlink" style="isolation:isolate" viewBox="0 0 560 315" width="560pt" height="315pt"><defs><clipPath id="_clipPath_Q76fAwD44VGSCy2gQZyandXG6oXcCR6e"><rect width="560" height="315"/></clipPath></defs><g clip-path="url(#_clipPath_Q76fAwD44VGSCy2gQZyandXG6oXcCR6e)"><g><path d=" M 534.409 78.139 L 534.409 111.545 C 534.408 112.188 533.887 112.708 533.245 112.71 L 532.416 112.71 L 532.416 286.738 C 532.415 296.766 524.286 304.895 514.258 304.896 L 405.518 304.896 C 400.702 304.895 396.085 302.982 392.68 299.577 C 389.276 296.171 387.364 291.553 387.365 286.738 L 387.365 118.814 L 386.764 118.814 C 386.311 118.814 385.943 118.448 385.94 117.995 L 385.94 98.982 C 385.94 98.764 386.027 98.554 386.182 98.399 C 386.336 98.245 386.546 98.158 386.764 98.158 L 387.365 98.158 L 387.365 90.997 L 386.759 90.997 C 386.283 90.995 385.899 90.608 385.9 90.132 L 385.9 71.379 C 385.901 70.905 386.285 70.52 386.759 70.519 L 387.365 70.519 L 387.365 60.743 L 386.749 60.743 C 386.547 60.744 386.353 60.663 386.209 60.52 C 386.066 60.377 385.986 60.183 385.986 59.98 L 385.986 49.747 C 385.985 49.324 386.327 48.981 386.749 48.979 L 387.365 48.979 L 387.365 28.257 C 387.365 18.232 395.492 10.105 405.518 10.104 L 514.258 10.104 C 524.284 10.104 532.413 18.231 532.416 28.257 L 532.416 76.974 L 533.245 76.974 C 533.887 76.975 534.408 77.496 534.409 78.139 Z " fill="rgb(63,61,86)"/><path d="M 447.457 19.416 L 465.127 19.416 C 465.84 19.416 466.419 19.995 466.419 20.708 L 466.419 22.236 C 466.419 22.949 465.84 23.529 465.127 23.529 L 447.457 23.529 C 446.743 23.529 446.164 22.949 446.164 22.236 L 446.164 20.708 C 446.164 19.995 446.743 19.416 447.457 19.416 Z" style="stroke:none;fill:#E6E8EC;stroke-miterlimit:10;"/><circle vector-effect="non-scaling-stroke" cx="471.81500329188384" cy="21.47206366530694" r="2.3329065741475006" fill="rgb(230,232,236)"/><path d=" M 523.721 31.848 L 523.721 288.243 C 523.718 294.604 518.561 299.758 512.2 299.759 L 408.109 299.759 C 405.053 299.764 402.12 298.553 399.959 296.392 C 397.797 294.231 396.585 291.299 396.589 288.243 L 396.589 31.848 C 396.589 28.793 397.802 25.862 399.963 23.702 C 402.123 21.541 405.054 20.327 408.109 20.328 L 423.688 20.328 L 423.688 22.326 C 423.688 27.565 427.935 31.812 433.174 31.812 L 486.113 31.812 C 491.351 31.812 495.598 27.565 495.599 22.326 L 495.599 20.328 L 512.2 20.328 C 515.256 20.327 518.187 21.54 520.347 23.701 C 522.508 25.861 523.722 28.792 523.721 31.848 Z " fill="rgb(255,194,61)"/><g opacity="0.2"><rect x="401.67" y="104.379" width="118.002" height="57.475" transform="matrix(1,0,0,1,0,0)" fill="rgb(0,0,0)"/></g><rect x="401.67" y="191.497" width="118.002" height="57.475" transform="matrix(1,0,0,1,0,0)" fill="rgb(63,61,86)"/><circle vector-effect="non-scaling-stroke" cx="507.46483090192703" cy="51.623542804173226" r="10.172594700478612" fill="rgb(255,255,255)"/><path d=" M 512.043 51.296 L 507.792 51.296 L 507.792 47.046 L 507.138 47.046 L 507.138 51.296 L 502.887 51.296 L 502.887 51.95 L 507.138 51.95 L 507.138 56.201 L 507.792 56.201 L 507.792 51.95 L 512.043 51.95 L 512.043 51.296 L 512.043 51.296 Z " fill="rgb(63,61,86)"/><path d=" M 449.18 230.962 C 452.269 242.381 462.85 249.452 462.85 249.452 C 462.85 249.452 468.422 238.011 465.333 226.592 C 462.244 215.173 451.664 208.101 451.664 208.101 C 451.664 208.101 446.091 219.543 449.18 230.962 Z " fill="rgb(255,255,255)"/><path d=" M 453.719 228.508 C 462.196 236.759 463.231 249.443 463.231 249.443 C 463.231 249.443 450.523 248.749 442.047 240.498 C 433.571 232.247 432.536 219.563 432.536 219.563 C 432.536 219.563 445.243 220.256 453.719 228.508 Z " fill="rgb(255,194,61)"/><path d=" M 477.281 230.962 C 474.192 242.381 463.612 249.452 463.612 249.452 C 463.612 249.452 458.04 238.011 461.129 226.592 C 464.218 215.173 474.798 208.101 474.798 208.101 C 474.798 208.101 480.37 219.543 477.281 230.962 Z " fill="rgb(255,255,255)"/><path d=" M 472.742 228.508 C 464.266 236.759 463.231 249.443 463.231 249.443 C 463.231 249.443 475.938 248.749 484.414 240.498 C 492.891 232.247 493.926 219.563 493.926 219.563 C 493.926 219.563 481.219 220.256 472.742 228.508 Z " fill="rgb(255,194,61)"/><path d=" M 336.384 223.216 L 329.535 215.873 L 336.878 209.025 L 343.727 216.367 L 336.384 223.216 Z  M 330.627 215.911 L 336.422 222.124 L 342.635 216.329 L 336.84 210.116 L 330.627 215.911 Z " fill="rgb(47,46,65)"/><circle vector-effect="non-scaling-stroke" cx="341.80926336495673" cy="60.106006671843446" r="5.126280733709507" fill="rgb(63,61,86)"/><path d=" M 341.809 74.915 C 333.63 74.915 327 68.285 327 60.106 C 327 51.927 333.63 45.297 341.809 45.297 C 349.988 45.297 356.619 51.927 356.619 60.106 C 356.609 68.281 349.984 74.906 341.809 74.915 L 341.809 74.915 Z  M 341.809 46.436 C 334.259 46.436 328.139 52.556 328.139 60.106 C 328.139 67.656 334.259 73.776 341.809 73.776 C 349.359 73.776 355.479 67.656 355.479 60.106 C 355.471 52.56 349.355 46.445 341.809 46.436 L 341.809 46.436 Z " fill="rgb(47,46,65)"/><rect x="427.101" y="95.224" width="118.002" height="57.475" transform="matrix(1,0,0,1,0,0)" fill="rgb(63,61,86)"/><rect x="485.669" y="114.93" width="1.017" height="37.848" transform="matrix(1,0,0,1,0,0)" fill="rgb(255,255,255)"/><circle vector-effect="non-scaling-stroke" cx="486.17750155648764" cy="115.43850293519108" r="5.352219148304528" fill="rgb(255,194,61)"/><path d=" M 486.178 138.256 C 486.178 138.256 485.413 121.811 469.739 123.723" fill="rgb(255,255,255)"/><path d=" M 515.596 127.763 C 515.323 128.325 514.747 128.676 514.122 128.659 C 513.92 128.658 513.718 128.631 513.522 128.578 C 512.162 128.213 510.586 126.721 509.408 124.684 C 508.26 122.695 507.789 120.694 508.056 119.367 C 508.238 119.273 508.428 119.192 508.622 119.126 C 508.724 119.089 508.828 119.058 508.933 119.034 C 508.461 119.959 508.743 122.062 510.045 124.318 C 511.109 126.165 512.55 127.562 513.709 127.869 C 513.996 127.989 514.322 127.968 514.591 127.812 C 514.86 127.656 515.041 127.384 515.08 127.075 L 515.172 127.196 L 515.497 127.631 L 515.596 127.763 Z " fill="rgb(63,61,86)"/><path d=" M 502.834 220.502 L 502.79 220.473 L 502.142 220.067 C 502.146 219.025 501.356 217.317 499.612 215.602 C 498.138 214.165 496.427 213.222 495.246 213.178 C 495.386 213.012 495.54 212.858 495.707 212.717 L 495.71 212.717 C 495.783 212.655 495.86 212.593 495.941 212.534 C 497.533 213.004 498.975 213.881 500.124 215.079 C 502.04 216.963 503.093 219.109 502.834 220.502 Z " fill="rgb(63,61,86)"/></g><g><g><path d="M 286.524 77.796 L 288.985 77.796 C 289.482 77.796 289.886 78.199 289.886 78.697 L 289.886 113.066 C 289.886 113.563 289.482 113.967 288.985 113.967 L 286.524 113.967 C 286.026 113.967 285.623 113.563 285.623 113.066 L 285.623 78.697 C 285.623 78.199 286.026 77.796 286.524 77.796 Z" style="stroke:none;fill:#3F3D56;stroke-miterlimit:10;"/><path d="M 160.646 10.104 L 272.582 10.104 C 281.049 10.104 287.923 16.978 287.923 25.445 L 287.923 293.164 C 287.923 301.631 281.049 308.505 272.582 308.505 L 160.646 308.505 C 152.179 308.505 145.305 301.631 145.305 293.164 L 145.305 25.445 C 145.305 16.978 152.179 10.104 160.646 10.104 Z" style="stroke:none;fill:#3F3D56;stroke-miterlimit:10;"/><path d=" M 268.072 17.877 L 251.713 17.877 L 251.713 19.903 C 251.713 22.45 250.73 24.892 248.98 26.693 C 247.23 28.493 244.857 29.504 242.383 29.503 L 190.354 29.503 C 187.88 29.504 185.507 28.493 183.757 26.693 C 182.007 24.892 181.024 22.45 181.024 19.903 L 181.024 17.877 L 165.707 17.877 C 162.703 17.877 159.822 19.105 157.697 21.292 C 155.573 23.479 154.38 26.445 154.38 29.538 L 154.38 289.092 C 154.38 295.532 159.451 300.753 165.707 300.753 L 268.072 300.753 C 274.328 300.753 279.399 295.532 279.399 289.092 L 279.399 29.557 C 279.404 26.461 278.213 23.49 276.089 21.299 C 273.964 19.108 271.08 17.877 268.072 17.877 L 268.072 17.877 Z " fill="rgb(255,255,255)"/><path d="M 204.38 19.016 L 221.25 19.016 C 222.09 19.016 222.772 19.698 222.772 20.538 L 222.772 21.654 C 222.772 22.494 222.09 23.177 221.25 23.177 L 204.38 23.177 C 203.539 23.177 202.857 22.494 202.857 21.654 L 202.857 20.538 C 202.857 19.698 203.539 19.016 204.38 19.016 Z" style="stroke:none;fill:#E6E8EC;stroke-miterlimit:10;"/><ellipse vector-effect="non-scaling-stroke" cx="228.08003727147124" cy="21.096378214573495" rx="2.2952866656990523" ry="2.3629972922307836" fill="rgb(230,232,236)"/><ellipse vector-effect="non-scaling-stroke" cx="217.4846465691744" cy="162.96803689679246" rx="26.979215947403333" ry="27.77509893772131" fill="rgb(255,255,255)"/><path d=" M 252.97 159.09 C 252.969 179.592 236.825 196.212 216.91 196.211 C 196.995 196.21 180.852 179.589 180.852 159.087 C 180.853 138.585 196.998 121.965 216.912 121.966 C 226.476 121.966 235.647 125.878 242.409 132.84 C 249.171 139.802 252.97 149.244 252.97 159.09 Z  M 212.744 178.739 L 239.492 151.202 C 239.929 150.753 240.175 150.144 240.175 149.508 C 240.175 148.872 239.929 148.263 239.492 147.814 L 236.201 144.451 C 235.766 144.001 235.174 143.748 234.558 143.748 C 233.941 143.748 233.35 144.001 232.915 144.451 L 211.099 166.91 L 200.912 156.399 C 200.002 155.467 198.532 155.467 197.621 156.399 L 194.33 159.807 C 193.425 160.744 193.425 162.258 194.33 163.195 L 209.454 178.759 C 209.89 179.209 210.482 179.462 211.099 179.462 C 211.717 179.462 212.309 179.209 212.745 178.759 L 212.744 178.739 Z " fill="rgb(255,194,61)"/></g><g><path d="M 149.41 68.932 L 149.757 68.932 C 150.254 68.932 150.658 69.336 150.658 69.833 L 150.658 78.736 C 150.658 79.233 150.254 79.637 149.757 79.637 L 149.41 79.637 C 148.912 79.637 148.509 79.233 148.509 78.736 L 148.509 69.833 C 148.509 69.336 148.912 68.932 149.41 68.932 Z" style="stroke:none;fill:#3F3D56;stroke-miterlimit:10;"/><path d="M 149.332 88.533 L 149.952 88.533 C 150.449 88.533 150.853 88.937 150.853 89.434 L 150.853 106.262 C 150.853 106.759 150.449 107.163 149.952 107.163 L 149.332 107.163 C 148.834 107.163 148.431 106.759 148.431 106.262 L 148.431 89.434 C 148.431 88.937 148.834 88.533 149.332 88.533 Z" style="stroke:none;fill:#3F3D56;stroke-miterlimit:10;"/><path d="M 149.37 113.682 L 149.874 113.682 C 150.371 113.682 150.775 114.086 150.775 114.583 L 150.775 131.571 C 150.775 132.069 150.371 132.472 149.874 132.472 L 149.37 132.472 C 148.873 132.472 148.469 132.069 148.469 131.571 L 148.469 114.583 C 148.469 114.086 148.873 113.682 149.37 113.682 Z" style="stroke:none;fill:#3F3D56;stroke-miterlimit:10;"/><linearGradient id="_lgradient_0" x1="0" y1="0.5" x2="6.123233995736766e-17" y2="-0.5" gradientTransform="matrix(0.472,0,0,0.115,119.902,163.37)" gradientUnits="userSpaceOnUse"><stop offset="0%" stop-opacity="0.2501032770605385" style="stop-color:rgb(128,128,128)"/><stop offset="53.67799999998646%" stop-opacity="0.122" style="stop-color:rgb(128,128,128)"/><stop offset="100%" stop-opacity="0.102" style="stop-color:rgb(128,128,128)"/></linearGradient><path d=" M 119.902 163.37 C 120.029 163.495 120.22 163.521 120.374 163.432 C 120.214 163.434 120.056 163.413 119.902 163.37 Z " fill="url(#_lgradient_0)"/><path d=" M 137.726 170.547 L 137.261 173.157 L 136.901 175.153 L 136.248 178.804 L 129.916 183.368 C 129.916 183.368 129.345 182.865 128.404 182.072 C 125.809 179.872 120.355 175.393 116.35 172.989 C 115.32 172.313 114.205 171.784 113.037 171.417 L 137.726 170.547 Z " fill="rgb(254,185,185)"/><path d=" M 133.081 172.489 C 133.081 172.489 140.464 173.793 140.896 170.547 C 140.896 170.547 137.096 165.547 133.509 165.329 C 133.509 165.329 108.393 166.633 108.393 166.633 C 108.393 166.633 104.595 171.848 118.31 172.72 L 133.081 172.489 Z " fill="rgb(63,61,86)"/><rect x="110.603" y="65.375" width="38.623" height="47.15" transform="matrix(1,0,0,1,0,0)" fill="rgb(47,46,65)"/><g opacity="0.1"><rect x="110.603" y="65.589" width="38.623" height="47.15" transform="matrix(1,0,0,1,0,0)" fill="rgb(0,0,0)"/></g><path d=" M 65.337 146.089 C 64.701 146.253 63.888 146.887 62.984 147.803 C 59.092 151.77 53.516 161.081 53.516 161.081 C 46.389 152.34 54.276 145.434 57.638 143.06 C 58.456 142.486 59.005 142.17 59.005 142.17 L 65.337 146.089 Z " fill="rgb(254,185,185)"/><path d=" M 137.302 80.256 C 137.302 80.256 139.202 93.943 145.744 97.203 C 145.744 97.203 137.302 106.553 137.302 106.553 L 116.831 98.725 C 116.831 98.725 128.44 94.813 126.117 83.296 L 137.302 80.256 Z " fill="rgb(254,185,185)"/><path d=" M 115.352 162.604 L 114.889 165.204 L 114.513 167.208 L 113.86 170.859 L 107.528 175.419 C 107.528 175.419 106.957 174.92 106.016 174.128 C 103.421 171.928 97.967 167.449 93.956 165.044 C 92.926 164.367 91.811 163.838 90.642 163.472 L 115.352 162.604 Z " fill="rgb(254,185,185)"/><path d=" M 109.875 165.811 C 109.875 165.811 116.501 165.859 116.9 162.604 C 116.9 162.604 113.289 157.603 109.875 157.385 C 109.875 157.385 85.72 158.791 85.72 158.791 C 85.72 158.791 82.778 164.939 95.824 165.81 L 109.875 165.811 Z " fill="rgb(47,46,65)"/><path d=" M 156.332 216.949 C 156.043 216.802 155.753 216.651 155.467 216.504 L 154.689 215.493 L 144.477 202.162 L 144.477 202.393 C 144.408 204.62 143.673 222.261 137.938 223.891 C 131.818 225.628 124.435 226.064 121.069 214.331 C 117.703 202.598 111.554 176.96 105.239 175.437 L 114.633 167.507 C 114.633 167.507 120.853 174.996 123.387 182.165 C 123.292 181.72 118.997 161.059 122.522 157.404 L 153.341 157.404 C 153.341 157.404 158.098 171.354 161.359 178.265 C 163.898 183.63 167.708 196.316 170.162 204.901 C 172.591 213.378 164.057 220.863 156.332 216.949 Z " fill="rgb(63,61,86)"/><g opacity="0.1"><path d=" M 155.455 161.299 C 150.697 164.198 129.811 163.018 123.016 162.546 L 121.165 162.408 C 120.966 162.408 121.195 162.292 121.195 162.292 L 121.385 160.319 L 126.45 147.068 L 153.569 130.878 C 153.019 132.583 152.838 135.193 152.881 138.18 C 153.006 147.78 155.455 161.299 155.455 161.299 Z " fill="rgb(0,0,0)"/></g><path d=" M 155.455 160.645 C 150.697 163.543 129.811 162.363 123.016 161.891 L 121.165 161.758 L 120.858 161.731 L 121.195 161.642 L 122.864 161.197 L 126.45 146.423 L 153.568 130.237 C 153.019 131.942 152.837 134.552 152.881 137.54 C 153.006 147.13 155.455 160.645 155.455 160.645 Z " fill="rgb(239,239,239)"/><g opacity="0.1"><path d=" M 152.864 137.53 C 147.349 138.839 135.213 142.68 130.55 151.957 C 127.441 158.133 124.824 160.782 122.999 161.891 L 121.147 161.757 C 121.159 161.719 121.17 161.681 121.178 161.641 L 122.847 161.196 L 126.432 146.422 L 153.551 130.237 C 153.008 131.933 152.82 134.543 152.864 137.53 Z " fill="rgb(0,0,0)"/></g><g opacity="0.1"><path d=" M 59.005 142.179 L 65.337 146.089 C 64.701 146.254 63.888 146.887 62.984 147.803 C 62.456 146.218 59.145 144.005 57.638 143.061 C 58.455 142.496 59.005 142.179 59.005 142.179 Z " fill="rgb(0,0,0)"/></g><g opacity="0.1"><path d=" M 120.019 162.012 C 119.877 162.088 119.703 162.063 119.587 161.949 C 119.727 161.992 119.873 162.013 120.019 162.012 L 120.019 162.012 Z " fill="rgb(0,0,0)"/></g><path d=" M 134.348 96.334 C 134.348 96.334 128.648 96.984 124.639 92.639 C 124.639 92.639 107.77 97.639 102.057 108.935 C 96.344 120.232 57.508 142.397 57.508 142.397 C 57.508 142.397 64.264 146.307 63.628 148.261 L 89.168 133.051 C 89.168 133.051 98.251 126.319 100.772 124.796 C 100.772 124.796 117.238 113.932 120.192 139.352 C 120.192 139.352 120.192 161.731 120.192 161.731 C 120.192 161.731 124.414 163.254 130.534 151.085 C 130.534 151.085 155.645 136.092 155.645 136.092 L 156.7 123.277 C 156.7 123.277 160.468 114.781 157.566 111.255 C 156.686 110.211 156.102 108.939 155.874 107.577 C 155.394 104.322 155.874 98.899 162.596 94.393 C 172.937 87.438 176.946 81.792 176.946 81.792 C 176.946 81.792 177.158 77.66 170.826 75.705 C 164.495 73.75 138.747 63.104 138.747 63.104 L 137.882 66.799 L 158.197 81.56 C 158.197 81.56 148.068 90.02 140.032 89.815 C 140.031 89.815 141.523 96.116 134.348 96.334 Z " fill="rgb(255,194,61)"/><g opacity="0.1"><path d=" M 138.258 86.213 C 137.759 84.471 137.369 82.699 137.09 80.905 L 125.905 83.948 C 126.399 86.146 126.31 88.44 125.65 90.591 C 130.326 91.875 135.293 90.15 138.258 86.213 Z " fill="rgb(0,0,0)"/></g><ellipse vector-effect="non-scaling-stroke" cx="128.9677830011512" cy="77.97598662948702" rx="12.028248318407385" ry="12.383079913906826" fill="rgb(254,185,185)"/><g opacity="0.1"><path d=" M 142.051 177.703 C 142.051 177.703 149.015 191.827 146.904 196.168" fill="rgb(0,0,0)"/></g><path d=" M 135.364 49.376 C 138.703 49.768 141.874 51.242 145.161 52.048 C 145.982 52.311 146.857 52.344 147.695 52.145 C 148.971 51.74 150.009 50.365 151.333 50.404 C 152.147 50.431 152.868 51.001 153.538 51.549 C 154.614 52.396 155.626 53.325 156.566 54.327 C 158.832 56.861 160.238 60.272 162.305 63.028 C 164.372 65.784 167.321 69.016 170.257 67.752 C 168.259 75.767 162.028 80.781 154.948 81.28 C 152.124 81.48 149.231 80.875 146.497 81.725 C 145.816 82.012 145.097 82.193 144.364 82.259 C 142.79 82.259 141.523 80.772 140.541 79.325 C 138.24 75.923 136.419 72.063 133.828 68.959 C 132.963 67.931 131.964 66.955 130.753 66.769 C 129.542 66.582 128.431 67.178 127.354 67.753 C 125.576 68.701 123.76 69.681 122.38 71.315 C 121 72.949 120.131 75.362 120.702 77.549 C 121.009 78.733 121.71 79.802 121.722 81.04 C 121.748 83.017 120.053 84.459 119.72 86.383 C 119.645 87.191 119.617 88.003 119.638 88.814 C 119.491 91.449 117.815 93.605 116.07 95.266 C 115.387 95.907 114.635 96.602 114.435 97.595 C 114.301 98.276 114.435 98.992 114.349 99.683 C 114.094 101.393 112.437 102.261 110.971 102.484 C 109.258 102.745 107.508 102.531 105.902 101.865 C 107.952 100.867 109.215 98.027 108.739 95.484 C 108.086 91.958 104.643 89.424 104.939 85.835 C 105.101 84.734 105.421 83.664 105.89 82.661 C 106.641 80.722 107.186 78.705 107.517 76.645 C 107.776 75.056 107.902 73.368 107.417 71.85 C 106.985 70.469 106.081 69.37 105.315 68.203 C 104.277 66.616 103.458 64.888 102.88 63.069 C 102.671 62.53 102.591 61.946 102.647 61.368 C 102.821 60.685 103.19 60.072 103.707 59.609 C 105.589 57.573 107.6 55.459 110.122 54.876 C 111.325 54.67 112.548 54.622 113.763 54.733 C 115.876 54.801 117.991 54.709 120.091 54.457 C 121.821 54.248 124.744 54.275 126.211 53.121 C 127.577 52.043 128.347 50.69 130.03 50.004 C 131.733 49.354 133.564 49.139 135.367 49.376 L 135.364 49.376 Z " fill="rgb(47,46,65)"/></g><ellipse vector-effect="non-scaling-stroke" cx="121.63597273111026" cy="307.0992942737279" rx="11.514823830253043" ry="2.0048948135805063" fill="rgb(239,239,239)"/><path d=" M 126.398 303.821 C 126.923 303.379 127.305 302.784 127.495 302.114 C 127.667 301.421 127.348 300.699 126.728 300.377 C 126.023 300.1 125.27 300.604 124.7 301.111 C 124.131 301.618 123.474 302.199 122.727 302.09 C 123.51 301.362 123.863 300.264 123.658 299.198 C 123.624 298.981 123.534 298.777 123.397 298.609 C 123.009 298.178 122.298 298.361 121.831 298.703 C 120.342 299.781 119.927 301.863 119.918 303.735 C 119.766 303.06 119.895 302.356 119.889 301.672 C 119.884 300.988 119.703 300.198 119.133 299.835 C 118.782 299.641 118.387 299.546 117.988 299.558 C 117.318 299.532 116.573 299.603 116.115 300.107 C 115.542 300.732 115.697 301.782 116.189 302.466 C 116.682 303.149 117.435 303.589 118.128 304.062 C 118.682 304.402 119.155 304.866 119.511 305.42 C 119.554 305.497 119.589 305.579 119.614 305.664 L 123.798 305.664 C 124.742 305.172 125.616 304.552 126.398 303.819 L 126.398 303.821 Z " fill="rgb(239,239,239)"/><ellipse vector-effect="non-scaling-stroke" cx="56.51482383025304" cy="307.0992942737279" rx="11.514823830253043" ry="2.0048948135805063" fill="rgb(239,239,239)"/><path d=" M 61.277 303.821 C 61.802 303.379 62.184 302.784 62.374 302.114 C 62.546 301.421 62.227 300.699 61.606 300.377 C 60.902 300.1 60.149 300.604 59.579 301.111 C 59.009 301.618 58.353 302.199 57.606 302.09 C 58.388 301.362 58.742 300.264 58.537 299.198 C 58.503 298.981 58.413 298.777 58.276 298.609 C 57.888 298.178 57.176 298.361 56.71 298.703 C 55.221 299.781 54.805 301.863 54.797 303.735 C 54.645 303.06 54.774 302.356 54.768 301.672 C 54.762 300.988 54.582 300.198 54.012 299.835 C 53.66 299.641 53.265 299.546 52.867 299.558 C 52.196 299.532 51.452 299.603 50.994 300.107 C 50.421 300.732 50.576 301.782 51.068 302.466 C 51.561 303.149 52.314 303.589 53.007 304.062 C 53.561 304.402 54.034 304.866 54.39 305.42 C 54.433 305.497 54.468 305.579 54.493 305.664 L 58.677 305.664 C 59.62 305.172 60.495 304.552 61.277 303.819 L 61.277 303.821 Z " fill="rgb(239,239,239)"/><path d=" M 67.525 198.141 C 67.525 198.141 51.035 197.118 52.962 209.028 C 52.962 209.028 52.574 211.132 54.429 212.088 C 54.429 212.088 54.459 211.195 56.125 211.503 C 56.717 211.605 57.318 211.635 57.917 211.592 C 58.726 211.537 59.496 211.211 60.108 210.663 L 60.108 210.663 C 60.108 210.663 64.751 208.688 66.556 200.879 C 66.556 200.879 67.888 199.178 67.836 198.74 L 65.05 199.964 C 65.05 199.964 66.001 202.032 65.254 203.752 C 65.254 203.752 65.163 200.039 64.63 200.124 C 64.521 200.124 63.18 200.843 63.18 200.843 C 63.18 200.843 64.82 204.448 63.584 207.066 C 63.584 207.066 64.052 202.626 62.668 201.102 L 60.707 202.3 C 60.707 202.3 62.62 206.021 61.323 209.059 C 61.323 209.059 61.657 204.4 60.295 202.586 L 58.52 204.016 C 58.52 204.016 60.316 207.683 59.223 210.204 C 59.223 210.204 59.075 204.78 58.133 204.369 C 58.133 204.369 56.58 205.781 56.341 206.362 C 56.341 206.362 57.573 209.042 56.81 210.432 C 56.81 210.432 56.341 206.817 55.942 206.799 C 55.942 206.799 54.393 209.194 54.232 210.819 C 54.31 209.303 54.771 207.834 55.569 206.558 C 54.675 206.732 53.85 207.171 53.195 207.822 C 53.195 207.822 53.439 206.129 55.951 205.981 C 55.951 205.981 57.253 204.163 57.574 204.052 C 57.574 204.052 55.075 203.837 53.56 204.531 C 53.56 204.531 54.892 202.936 58.03 203.66 L 59.765 202.185 C 59.765 202.185 56.473 201.734 55.077 202.232 C 55.077 202.232 56.682 200.82 60.236 201.848 L 62.146 200.673 C 62.146 200.673 59.338 200.052 57.668 200.273 C 57.668 200.273 59.434 199.295 62.706 200.353 L 64.073 199.723 C 64.073 199.723 62.017 199.308 61.413 199.241 C 61.413 199.241 60.779 199.004 60.779 199.004 C 62.082 198.781 63.419 198.935 64.641 199.451 C 64.641 199.451 67.576 198.327 67.525 198.141 Z " fill="rgb(63,61,86)"/></g></g></svg>